<mxfile host="app.diagrams.net" modified="2021-05-11T02:28:03.759Z" agent="5.0 (Windows NT 6.1; Win64; x64) AppleWebKit/537.36 (KHTML, like Gecko) Chrome/88.0.4324.182 Safari/537.36" etag="mBmWogek9iMn0VHPlPyh" version="14.6.11" type="github">
  <diagram id="q-ZNSaZeaFm4UA06uVpJ" name="Page-1">
    <mxGraphModel dx="868" dy="482" grid="1" gridSize="10" guides="1" tooltips="1" connect="1" arrows="1" fold="1" page="1" pageScale="1" pageWidth="827" pageHeight="1169" math="0" shadow="0">
      <root>
        <mxCell id="0" />
        <mxCell id="1" parent="0" />
        <mxCell id="nje2lxBTYBQbEukLYG72-3" style="edgeStyle=orthogonalEdgeStyle;rounded=0;orthogonalLoop=1;jettySize=auto;html=1;exitX=0.5;exitY=1;exitDx=0;exitDy=0;entryX=0.5;entryY=0;entryDx=0;entryDy=0;" edge="1" parent="1" source="nje2lxBTYBQbEukLYG72-1" target="nje2lxBTYBQbEukLYG72-2">
          <mxGeometry relative="1" as="geometry" />
        </mxCell>
        <mxCell id="nje2lxBTYBQbEukLYG72-8" style="edgeStyle=orthogonalEdgeStyle;rounded=0;orthogonalLoop=1;jettySize=auto;html=1;exitX=1;exitY=0.5;exitDx=0;exitDy=0;entryX=0;entryY=0.5;entryDx=0;entryDy=0;" edge="1" parent="1" source="nje2lxBTYBQbEukLYG72-1" target="nje2lxBTYBQbEukLYG72-6">
          <mxGeometry relative="1" as="geometry" />
        </mxCell>
        <mxCell id="nje2lxBTYBQbEukLYG72-1" value="" style="rounded=1;whiteSpace=wrap;html=1;" vertex="1" parent="1">
          <mxGeometry x="120" y="90" width="120" height="60" as="geometry" />
        </mxCell>
        <mxCell id="nje2lxBTYBQbEukLYG72-5" style="edgeStyle=orthogonalEdgeStyle;rounded=0;orthogonalLoop=1;jettySize=auto;html=1;exitX=0.5;exitY=1;exitDx=0;exitDy=0;" edge="1" parent="1" source="nje2lxBTYBQbEukLYG72-2" target="nje2lxBTYBQbEukLYG72-4">
          <mxGeometry relative="1" as="geometry" />
        </mxCell>
        <mxCell id="nje2lxBTYBQbEukLYG72-2" value="" style="rounded=1;whiteSpace=wrap;html=1;" vertex="1" parent="1">
          <mxGeometry x="320" y="220" width="120" height="50" as="geometry" />
        </mxCell>
        <mxCell id="nje2lxBTYBQbEukLYG72-4" value="" style="rounded=1;whiteSpace=wrap;html=1;" vertex="1" parent="1">
          <mxGeometry x="120" y="340" width="120" height="60" as="geometry" />
        </mxCell>
        <mxCell id="nje2lxBTYBQbEukLYG72-9" style="edgeStyle=orthogonalEdgeStyle;rounded=0;orthogonalLoop=1;jettySize=auto;html=1;exitX=1;exitY=0.5;exitDx=0;exitDy=0;entryX=0;entryY=0.5;entryDx=0;entryDy=0;" edge="1" parent="1" source="nje2lxBTYBQbEukLYG72-6" target="nje2lxBTYBQbEukLYG72-7">
          <mxGeometry relative="1" as="geometry" />
        </mxCell>
        <mxCell id="nje2lxBTYBQbEukLYG72-6" value="" style="rounded=1;whiteSpace=wrap;html=1;" vertex="1" parent="1">
          <mxGeometry x="320" y="90" width="120" height="60" as="geometry" />
        </mxCell>
        <mxCell id="nje2lxBTYBQbEukLYG72-10" style="edgeStyle=orthogonalEdgeStyle;rounded=0;orthogonalLoop=1;jettySize=auto;html=1;exitX=0.5;exitY=1;exitDx=0;exitDy=0;entryX=1;entryY=0.5;entryDx=0;entryDy=0;" edge="1" parent="1" source="nje2lxBTYBQbEukLYG72-7" target="nje2lxBTYBQbEukLYG72-4">
          <mxGeometry relative="1" as="geometry" />
        </mxCell>
        <mxCell id="nje2lxBTYBQbEukLYG72-7" value="" style="rounded=1;whiteSpace=wrap;html=1;" vertex="1" parent="1">
          <mxGeometry x="520" y="90" width="120" height="60" as="geometry" />
        </mxCell>
      </root>
    </mxGraphModel>
  </diagram>
</mxfile>
